<svg id="Capa_1" enable-background="new 0 0 512 512" height="512" viewBox="0 0 512 512" width="512" xmlns="http://www.w3.org/2000/svg" xmlns:xlink="http://www.w3.org/1999/xlink"><linearGradient id="SVGID_1_" gradientUnits="userSpaceOnUse" x1="514.782" x2="-122.414" y1="-43.218" y2="593.979"><stop offset=".0023" stop-color="#ffc599"/><stop offset=".992" stop-color="#ffe8dc" stop-opacity="0"/></linearGradient><linearGradient id="SVGID_2_" gradientUnits="userSpaceOnUse" x1="256" x2="256" y1="455.5" y2="35.5"><stop offset="0" stop-color="#ff4d4d" stop-opacity=".4"/><stop offset="1" stop-color="#ff4d4d" stop-opacity="0"/></linearGradient><g><path d="m428.41 171.888c-8.355-8.355-18.026-14.923-28.717-19.765-28.021-12.69-50.051-35.408-62.434-63.565-22.917-52.113-74.975-88.512-135.546-88.558-79.311-.06-145.162 63.163-148.147 142.418-1.277 33.922 8.858 65.421 26.87 90.969 22.877 32.448 28.821 73.782 17.021 111.69-16.764 53.857-10.919 104.898 20.973 136.791 55.888 55.888 170.586 31.803 256.185-53.795 85.598-85.599 109.683-200.296 53.795-256.185z" fill="url(#SVGID_1_)"/><g><g><g><g><g><g><g fill="#6c6cff"><path d="m386.443 145.09h-21.522v-66.913h21.522c3.803 0 6.885 3.083 6.885 6.885v53.143c0 3.803-3.082 6.885-6.885 6.885z"/><path d="m122.407 213.943h24.672v-135.766h-24.672c-3.803 0-3.735 3.083-3.735 6.885v121.995c0 3.803-.067 6.886 3.735 6.886z"/></g></g><path d="m351.888 455.5h-191.775c-12.208 0-22.105-9.897-22.105-22.105v-375.79c0-12.208 9.897-22.105 22.105-22.105h191.775c12.208 0 22.105 9.897 22.105 22.105v375.789c0 12.209-9.897 22.106-22.105 22.106z" fill="#ff9d33"/><path d="m138.012 87.622h235.977v315.756h-235.977z" fill="#fff"/><path d="m373.989 87.622v120.047c-10.752-.357-20.58-4.378-28.298-10.826-8.106 6.773-18.532 10.857-29.893 10.857s-21.788-4.085-29.904-10.857c-8.106 6.773-18.533 10.857-29.894 10.857s-21.787-4.085-29.893-10.857c-8.117 6.773-18.543 10.857-29.904 10.857s-21.787-4.085-29.893-10.857c-7.718 6.447-17.546 10.469-28.298 10.826v-120.047z" fill="#ebebff"/><g fill="#ff4d4d"><path d="m276.26 66.5h-40.52c-2.762 0-5-2.239-5-5s2.238-5 5-5h40.52c2.762 0 5 2.239 5 5s-2.239 5-5 5z"/><path d="m235.667 422.5v12.667c0 2.761 2.239 5 5 5h30.667c2.761 0 5-2.239 5-5v-12.667c0-2.761-2.239-5-5-5h-30.667c-2.762 0-5 2.238-5 5z"/><path d="m335.01 433.833h-16.52c-2.762 0-5-2.239-5-5s2.238-5 5-5h16.52c2.762 0 5 2.239 5 5 0 2.762-2.239 5-5 5z"/><path d="m193.51 433.833h-16.52c-2.762 0-5-2.239-5-5s2.238-5 5-5h16.52c2.762 0 5 2.239 5 5 0 2.762-2.239 5-5 5z"/></g></g></g></g><g><g fill="#ff2c2c"><path d="m327.852 257.644c-1.279 0-2.56-.488-3.535-1.464-37.669-37.669-98.962-37.67-136.633 0-1.951 1.952-5.119 1.952-7.07 0-1.953-1.953-1.953-5.119 0-7.071 41.567-41.568 109.206-41.568 150.773 0 1.953 1.953 1.953 5.119 0 7.071-.976.976-2.256 1.464-3.535 1.464z"/><path d="m306.639 278.857c-1.279 0-2.56-.488-3.535-1.464-25.975-25.973-68.234-25.973-94.207 0-1.951 1.952-5.119 1.952-7.07 0-1.953-1.953-1.953-5.119 0-7.071 29.871-29.871 78.476-29.871 108.348 0 1.953 1.953 1.953 5.119 0 7.071-.977.976-2.257 1.464-3.536 1.464z"/><path d="m285.425 300.07c-1.279 0-2.56-.488-3.535-1.464-6.903-6.903-16.098-10.705-25.89-10.704-9.792 0-18.986 3.801-25.89 10.704-1.951 1.952-5.119 1.952-7.07 0-1.953-1.953-1.953-5.119 0-7.071 8.791-8.791 20.496-13.633 32.96-13.633 12.464-.001 24.169 4.841 32.96 13.633 1.953 1.953 1.953 5.119 0 7.071-.976.976-2.256 1.464-3.535 1.464z"/></g></g><ellipse cx="256" cy="345.514" fill="#ff9d33" rx="37.9" ry="37.9" transform="matrix(.924 -.383 .383 .924 -112.736 124.268)"/><g><path d="m256 355.641c-8.411 0-15.254-6.843-15.254-15.254s6.843-15.254 15.254-15.254 15.254 6.843 15.254 15.254-6.843 15.254-15.254 15.254zm0-20.508c-2.897 0-5.254 2.357-5.254 5.254s2.356 5.254 5.254 5.254 5.254-2.357 5.254-5.254-2.356-5.254-5.254-5.254z" fill="#ff2c2c"/><g><path d="m266.254 365.894c-2.762 0-5-2.239-5-5 0-2.897-2.356-5.253-5.254-5.253-2.897 0-5.254 2.356-5.254 5.253 0 2.761-2.238 5-5 5s-5-2.239-5-5c0-8.411 6.843-15.253 15.254-15.253s15.254 6.843 15.254 15.253c0 2.761-2.238 5-5 5z" fill="#ff2c2c"/></g></g><g><g><g><g><path d="m190.329 378.307h-21c-2.762 0-5-2.239-5-5s2.238-5 5-5h21c2.762 0 5 2.239 5 5s-2.238 5-5 5z" fill="#ebebff"/></g><g><path d="m190.329 358.08h-21c-2.762 0-5-2.239-5-5s2.238-5 5-5h21c2.762 0 5 2.239 5 5s-2.238 5-5 5z" fill="#ebebff"/></g></g></g><g><g><g><path d="m342.671 378.307h-21c-2.762 0-5-2.239-5-5s2.238-5 5-5h21c2.762 0 5 2.239 5 5s-2.238 5-5 5z" fill="#ebebff"/></g><g><path d="m342.671 358.08h-21c-2.762 0-5-2.239-5-5s2.238-5 5-5h21c2.762 0 5 2.239 5 5s-2.238 5-5 5z" fill="#ebebff"/></g></g></g></g></g><g><g><path d="m464.771 336.563c-1.279 0-2.56-.488-3.535-1.464l-6.465-6.464-6.465 6.464c-1.951 1.952-5.119 1.952-7.07 0-1.953-1.953-1.953-5.119 0-7.071l10-10c1.951-1.952 5.119-1.952 7.07 0l10 10c1.953 1.953 1.953 5.119 0 7.071-.976.975-2.256 1.464-3.535 1.464z" fill="#ff6c6c"/></g><g><path d="m67.23 154c-1.279 0-2.56-.488-3.535-1.464l-6.465-6.464-6.465 6.464c-1.951 1.952-5.119 1.952-7.07 0-1.953-1.953-1.953-5.119 0-7.071l10-10c1.951-1.952 5.119-1.952 7.07 0l10 10c1.953 1.953 1.953 5.119 0 7.071-.976.976-2.256 1.464-3.535 1.464z" fill="#ff6c6c"/></g><path d="m430.771 188.81c-1.279 0-2.56-.488-3.535-1.464-1.953-1.953-1.953-5.119 0-7.071l10-10c1.951-1.952 5.119-1.952 7.07 0 1.953 1.953 1.953 5.119 0 7.071l-10 10c-.976.976-2.256 1.464-3.535 1.464z" fill="#6c6cff"/><path d="m105.278 255.554c-1.279 0-2.56-.488-3.535-1.464-1.953-1.953-1.953-5.119 0-7.071l10-10c1.951-1.952 5.119-1.952 7.07 0 1.953 1.953 1.953 5.119 0 7.071l-10 10c-.975.975-2.255 1.464-3.535 1.464z" fill="#6c6cff"/><path d="m52.23 348c-1.279 0-2.56-.488-3.535-1.464-1.953-1.953-1.953-5.119 0-7.071l10-10c1.951-1.952 5.119-1.952 7.07 0 1.953 1.953 1.953 5.119 0 7.071l-10 10c-.976.976-2.256 1.464-3.535 1.464z" fill="#ff9d33"/></g></g><path d="m351.888 455.5h-191.775c-12.208 0-22.105-9.897-22.105-22.105v-375.79c0-12.208 9.897-22.105 22.105-22.105h191.775c12.208 0 22.105 9.897 22.105 22.105v375.789c0 12.209-9.897 22.106-22.105 22.106z" fill="url(#SVGID_2_)"/><g><path d="m166.304 137.267h-59.797l31.5-49.64h47.197z" fill="#ffc599"/><path d="m226.102 137.267h-59.798l18.9-49.64h47.198z" fill="#ff4d4d"/><path d="m285.898 137.267h-59.796l6.3-49.64h47.197z" fill="#ffc599"/><path d="m345.696 137.267h-59.798l-6.299-49.64h47.197z" fill="#ff4d4d"/><path d="m405.493 137.267h-59.797l-18.9-49.64h47.197z" fill="#ffc599"/><path d="m136.406 190.9c-16.512 0-29.898-13.386-29.898-29.898v-23.735h59.797v23.735c-.001 16.512-13.387 29.898-29.899 29.898z" fill="#ffd6bb"/><path d="m196.203 190.9c-16.512 0-29.898-13.386-29.898-29.898v-23.735h59.797v23.735c0 16.512-13.387 29.898-29.899 29.898z" fill="#ff6c6c"/><path d="m256 190.9c-16.512 0-29.898-13.386-29.898-29.898v-23.735h59.797v23.735c-.001 16.512-13.386 29.898-29.899 29.898z" fill="#ffd6bb"/><path d="m315.797 190.9c-16.513 0-29.899-13.386-29.899-29.898v-23.735h59.797v23.735c.001 16.512-13.385 29.898-29.898 29.898z" fill="#ff6c6c"/><path d="m375.594 190.9c-16.513 0-29.899-13.386-29.899-29.898v-23.735h59.797v23.735c.001 16.512-13.385 29.898-29.898 29.898z" fill="#ffd6bb"/></g></g></svg>