<svg id="Capa_1" enable-background="new 0 0 512 512" height="512" viewBox="0 0 512 512" width="512" xmlns="http://www.w3.org/2000/svg" xmlns:xlink="http://www.w3.org/1999/xlink"><linearGradient id="SVGID_1_" gradientUnits="userSpaceOnUse" x1="433.516" x2="93.516" y1="-275.503" y2="742.498"><stop offset=".007" stop-color="#9494ff"/><stop offset=".992" stop-color="#ffe8dc" stop-opacity="0"/></linearGradient><linearGradient id="SVGID_2_" gradientUnits="userSpaceOnUse" x1="256" x2="256" y1="455.5" y2="35.5"><stop offset="0" stop-color="#ff4d4d" stop-opacity=".4"/><stop offset="1" stop-color="#ff4d4d" stop-opacity="0"/></linearGradient><g><path d="m512 256c0-27.631-12.504-53.535-34.347-75.837-15.199-15.518-27.854-33.295-37.513-52.751-30.889-62.217-83.554-103.196-143.336-103.196-42.483 0-81.369 20.698-111.403 55.003-19.88 22.707-44.981 40.125-72.988 51.371-67.838 27.242-112.413 73.243-112.413 125.41s44.575 98.168 112.414 125.41c28.007 11.246 53.107 28.664 72.988 51.371 30.034 34.305 68.92 55.003 111.402 55.003 59.782 0 112.447-40.979 143.336-103.196 9.659-19.456 22.314-37.232 37.513-52.751 21.843-22.302 34.347-48.206 34.347-75.837z" fill="url(#SVGID_1_)"/><g><g><g><g><g fill="#6c6cff"><path d="m386.443 145.09h-21.522v-66.913h21.522c3.803 0 6.885 3.083 6.885 6.885v53.143c0 3.803-3.082 6.885-6.885 6.885z"/><path d="m122.407 213.943h24.672v-135.766h-24.672c-3.803 0-3.735 3.083-3.735 6.885v121.995c0 3.803-.068 6.886 3.735 6.886z"/></g></g><path d="m351.888 455.5h-191.775c-12.208 0-22.105-9.897-22.105-22.105v-375.79c0-12.208 9.897-22.105 22.105-22.105h191.775c12.208 0 22.105 9.897 22.105 22.105v375.789c0 12.209-9.897 22.106-22.105 22.106z" fill="#ff9d33"/><path d="m138.012 87.622h235.977v315.756h-235.977z" fill="#fff"/><path d="m373.988 87.622v120.047c-10.752-.357-20.58-4.378-28.298-10.826-8.106 6.773-18.532 10.857-29.893 10.857s-21.787-4.085-29.904-10.857c-8.105 6.772-18.532 10.857-29.893 10.857s-21.788-4.085-29.893-10.857c-8.117 6.773-18.543 10.857-29.904 10.857s-21.787-4.085-29.893-10.857c-7.718 6.447-17.546 10.469-28.298 10.826v-120.047z" fill="#ebebff"/><g><path d="m209.564 257.379h-26.351c-4.813 0-8.729-3.916-8.729-8.729v-26.351c0-4.813 3.916-8.729 8.729-8.729h26.351c4.813 0 8.729 3.916 8.729 8.729v26.351c0 4.813-3.916 8.729-8.729 8.729z" fill="#4d4dff"/></g><g><path d="m269.175 257.379h-26.351c-4.813 0-8.729-3.916-8.729-8.729v-26.351c0-4.813 3.916-8.729 8.729-8.729h26.351c4.813 0 8.729 3.916 8.729 8.729v26.351c0 4.813-3.916 8.729-8.729 8.729z" fill="#ff2c2c"/></g><g><path d="m209.564 314.42h-26.351c-4.813 0-8.729-3.916-8.729-8.729v-26.351c0-4.813 3.916-8.729 8.729-8.729h26.351c4.813 0 8.729 3.916 8.729 8.729v26.351c0 4.813-3.916 8.729-8.729 8.729zm-25.08-10h23.809v-23.809h-23.809z" fill="#ff4d4d"/></g><g><path d="m328.787 257.379h-26.351c-4.813 0-8.729-3.916-8.729-8.729v-26.351c0-4.813 3.916-8.729 8.729-8.729h26.351c4.813 0 8.729 3.916 8.729 8.729v26.351c0 4.813-3.916 8.729-8.729 8.729zm-25.08-10h23.809v-23.809h-23.809z" fill="#ff9d33"/></g><g><path d="m269.175 314.42h-26.351c-4.813 0-8.729-3.916-8.729-8.729v-26.351c0-4.813 3.916-8.729 8.729-8.729h26.351c4.813 0 8.729 3.916 8.729 8.729v26.351c0 4.813-3.916 8.729-8.729 8.729zm-25.079-10h23.809v-23.809h-23.809z" fill="#6c6cff"/></g><g><path d="m328.787 314.42h-26.351c-4.813 0-8.729-3.916-8.729-8.729v-26.351c0-4.813 3.916-8.729 8.729-8.729h26.351c4.813 0 8.729 3.916 8.729 8.729v26.351c0 4.813-3.916 8.729-8.729 8.729zm-25.08-10h23.809v-23.809h-23.809z" fill="#ff6c6c"/></g><g><path d="m209.564 371.461h-26.351c-4.813 0-8.729-3.916-8.729-8.729v-26.351c0-4.813 3.916-8.729 8.729-8.729h26.351c4.813 0 8.729 3.916 8.729 8.729v26.351c0 4.813-3.916 8.729-8.729 8.729zm-25.08-10h23.809v-23.809h-23.809z" fill="#ff8b00"/></g><g><path d="m269.175 371.461c4.813 0 8.729-3.916 8.729-8.729v-26.351c0-4.813-3.916-8.729-8.729-8.729h-26.351c-4.813 0-8.729 3.916-8.729 8.729v26.351c0 4.813 3.916 8.729 8.729 8.729zm-25.079-33.809h23.809v23.809h-23.809z" fill="#2c27ff"/></g><g><path d="m328.787 371.461h-26.351c-4.813 0-8.729-3.916-8.729-8.729v-26.351c0-4.813 3.916-8.729 8.729-8.729h26.351c4.813 0 8.729 3.916 8.729 8.729v26.351c0 4.813-3.916 8.729-8.729 8.729z" fill="#4d4dff"/></g><g fill="#ff4d4d"><path d="m276.26 66.5h-40.52c-2.762 0-5-2.239-5-5s2.238-5 5-5h40.52c2.762 0 5 2.239 5 5s-2.239 5-5 5z"/><path d="m235.667 422.5v12.667c0 2.761 2.239 5 5 5h30.667c2.761 0 5-2.239 5-5v-12.667c0-2.761-2.239-5-5-5h-30.667c-2.762 0-5 2.238-5 5z"/><path d="m335.01 433.833h-16.52c-2.762 0-5-2.239-5-5s2.238-5 5-5h16.52c2.762 0 5 2.239 5 5 0 2.762-2.239 5-5 5z"/><path d="m193.51 433.833h-16.52c-2.762 0-5-2.239-5-5s2.238-5 5-5h16.52c2.762 0 5 2.239 5 5 0 2.762-2.239 5-5 5z"/></g></g></g></g><path d="m351.888 455.5h-191.775c-12.208 0-22.105-9.897-22.105-22.105v-375.79c0-12.208 9.897-22.105 22.105-22.105h191.775c12.208 0 22.105 9.897 22.105 22.105v375.789c0 12.209-9.897 22.106-22.105 22.106z" fill="url(#SVGID_2_)"/><g><path d="m166.304 137.267h-59.797l31.5-49.64h47.197z" fill="#ffc599"/><path d="m226.102 137.267h-59.798l18.9-49.64h47.198z" fill="#ff4d4d"/><path d="m285.898 137.267h-59.796l6.3-49.64h47.197z" fill="#ffc599"/><path d="m345.696 137.267h-59.798l-6.299-49.64h47.197z" fill="#ff4d4d"/><path d="m405.493 137.267h-59.797l-18.9-49.64h47.197z" fill="#ffc599"/><path d="m136.406 190.9c-16.513 0-29.899-13.386-29.899-29.898v-23.735h59.797v23.735c0 16.512-13.386 29.898-29.898 29.898z" fill="#ffd6bb"/><path d="m196.203 190.9c-16.512 0-29.898-13.386-29.898-29.898v-23.735h59.797v23.735c0 16.512-13.387 29.898-29.899 29.898z" fill="#ff6c6c"/><path d="m256 190.9c-16.512 0-29.898-13.386-29.898-29.898v-23.735h59.797v23.735c-.001 16.512-13.386 29.898-29.899 29.898z" fill="#ffd6bb"/><path d="m315.797 190.9c-16.512 0-29.899-13.386-29.899-29.898v-23.735h59.797v23.735c.001 16.512-13.385 29.898-29.898 29.898z" fill="#ff6c6c"/><path d="m375.594 190.9c-16.513 0-29.899-13.386-29.899-29.898v-23.735h59.797v23.735c.001 16.512-13.385 29.898-29.898 29.898z" fill="#ffd6bb"/></g><g><g><path d="m444.247 255.597c-1.279 0-2.56-.488-3.535-1.464l-6.465-6.464-6.465 6.464c-1.951 1.952-5.119 1.952-7.07 0-1.953-1.953-1.953-5.119 0-7.071l10-10c1.951-1.952 5.119-1.952 7.07 0l10 10c1.953 1.953 1.953 5.119 0 7.071-.975.975-2.256 1.464-3.535 1.464z" fill="#ff6c6c"/></g><g><path d="m87.753 124.263c-1.279 0-2.56-.488-3.535-1.464l-6.465-6.464-6.465 6.464c-1.951 1.952-5.119 1.952-7.07 0-1.953-1.953-1.953-5.119 0-7.071l10-10c1.951-1.952 5.119-1.952 7.07 0l10 10c1.953 1.953 1.953 5.119 0 7.071-.976.976-2.256 1.464-3.535 1.464z" fill="#6c6cff"/></g><g><path d="m91.524 275.797c-1.279 0-2.56-.488-3.535-1.464l-6.465-6.464-6.465 6.464c-1.951 1.952-5.119 1.952-7.07 0-1.953-1.953-1.953-5.119 0-7.071l10-10c1.951-1.952 5.119-1.952 7.07 0l10 10c1.953 1.953 1.953 5.119 0 7.071-.975.976-2.255 1.464-3.535 1.464z" fill="#ff9d33"/></g><path d="m405.247 332.737c-1.279 0-2.56-.488-3.535-1.464-1.953-1.953-1.953-5.119 0-7.071l10-10c1.951-1.952 5.119-1.952 7.07 0 1.953 1.953 1.953 5.119 0 7.071l-10 10c-.975.976-2.256 1.464-3.535 1.464z" fill="#6c6cff"/><path d="m99.524 327.832c-1.279 0-2.56-.488-3.535-1.464-1.953-1.953-1.953-5.119 0-7.071l10-10c1.951-1.952 5.119-1.952 7.07 0 1.953 1.953 1.953 5.119 0 7.071l-10 10c-.975.976-2.255 1.464-3.535 1.464z" fill="#ff6c6c"/></g></g></svg>