<svg id="Capa_1" enable-background="new 0 0 512 512" height="512" viewBox="0 0 512 512" width="512" xmlns="http://www.w3.org/2000/svg" xmlns:xlink="http://www.w3.org/1999/xlink"><linearGradient id="SVGID_1_" gradientUnits="userSpaceOnUse" x1="514.782" x2="-122.414" y1="-43.218" y2="593.979"><stop offset=".0023" stop-color="#ffc599"/><stop offset=".992" stop-color="#ffe8dc" stop-opacity="0"/></linearGradient><linearGradient id="SVGID_2_" gradientUnits="userSpaceOnUse" x1="255.677" x2="255.677" y1="439.474" y2="82.592"><stop offset="0" stop-color="#ff4d4d" stop-opacity=".4"/><stop offset="1" stop-color="#ff4d4d" stop-opacity="0"/></linearGradient><g><path d="m428.41 171.888c-8.355-8.355-18.026-14.923-28.717-19.765-28.021-12.69-50.051-35.408-62.434-63.565-22.917-52.113-74.975-88.512-135.546-88.558-79.311-.06-145.162 63.163-148.147 142.418-1.277 33.922 8.858 65.421 26.87 90.969 22.877 32.448 28.821 73.782 17.021 111.69-16.764 53.857-10.919 104.898 20.973 136.791 55.888 55.888 170.586 31.803 256.185-53.795 85.598-85.599 109.683-200.296 53.795-256.185z" fill="url(#SVGID_1_)"/><g><g><g><path d="m404.177 133.033v118c0 5.52-4.48 10-10 10h-277c-5.52 0-10-4.48-10-10v-118z" fill="#ff4d4d"/><path d="m107.177 133.033h297v30.01h-297z" fill="#ff2c2c"/><g><g fill="#ff7300"><path d="m344.577 114.377h97.833v18.667h-97.833z"/><path d="m68.943 114.377h97.833v18.667h-97.833z"/></g><path d="m409.677 148.043h-308c-2.762 0-5-2.239-5-5v-38.667c0-2.761 2.238-5 5-5h308c2.761 0 5 2.239 5 5v38.667c0 2.762-2.239 5-5 5z" fill="#ff9d33"/><g><path d="m463.343 151.377h-13.333c-5.523 0-10-4.477-10-10v-40.333c0-2.761 2.239-5 5-5h18.333z" fill="#ff9d33"/><path d="m475.01 164.481c-6.443 0-11.667-5.223-11.667-11.667v-58.208c0-6.443 5.223-11.667 11.667-11.667 6.443 0 11.667 5.223 11.667 11.667v58.208c0 6.443-5.224 11.667-11.667 11.667z" fill="#ff7300"/></g><g><path d="m48.657 151.377h18.333c2.761 0 5-2.239 5-5v-45.333c0-2.761-2.239-5-5-5h-18.333z" fill="#ff9d33"/><path d="m36.99 164.481c6.443 0 11.667-5.223 11.667-11.667v-58.208c0-6.443-5.223-11.667-11.667-11.667-6.443 0-11.667 5.223-11.667 11.667v58.208c0 6.443 5.224 11.667 11.667 11.667z" fill="#ff7300"/></g></g><path d="m365.673 438.146-105.161-61.652c-2.986-1.751-6.686-1.751-9.672 0l-105.16 61.652c-6.375 3.737-14.398-.86-14.398-8.249v-328.18c0-10.562 8.562-19.124 19.124-19.124h210.541c10.562 0 19.124 8.562 19.124 19.124v328.181c.001 7.389-8.023 11.986-14.398 8.248z" fill="#ff6c6c"/><g fill="#ff4d4d"><path d="m197.177 82.593v325.36l-28 16.41v-341.77z"/><path d="m342.177 82.593v341.77l-28-16.41v-325.36z"/></g><path d="m295.267 82.593v314.27l-34.75-20.37c-2.99-1.75-6.69-1.75-9.68 0l-34.75 20.37v-314.27z" fill="#ff4d4d"/><path d="m316.153 149.233c-14.031-14.031-36.78-14.031-50.81 0-5.338 5.339-13.994 5.339-19.332 0-14.031-14.031-36.779-14.031-50.81 0-14.031 14.031-14.031 36.779 0 50.81l51.51 51.51c4.952 4.952 12.981 4.952 17.933 0l51.51-51.51c14.03-14.03 14.03-36.779-.001-50.81z" fill="#fee"/></g></g><g><path d="m424.677 344.533c-1.279 0-2.56-.488-3.535-1.465l-6.465-6.464-6.465 6.464c-1.951 1.953-5.119 1.953-7.07 0-1.953-1.952-1.953-5.118 0-7.07l10-10c1.951-1.953 5.119-1.953 7.07 0l10 10c1.953 1.952 1.953 5.118 0 7.07-.976.977-2.256 1.465-3.535 1.465z" fill="#6c6cff"/></g><g><path d="m78.942 221.533c-1.279 0-2.56-.488-3.535-1.465l-6.465-6.464-6.465 6.464c-1.951 1.953-5.119 1.953-7.07 0-1.953-1.952-1.953-5.118 0-7.07l10-10c1.951-1.953 5.119-1.953 7.07 0l10 10c1.953 1.952 1.953 5.118 0 7.07-.975.977-2.255 1.465-3.535 1.465z" fill="#ff9d33"/></g><g fill="#ff6c6c"><path d="m426.677 274.533c-1.279 0-2.56-.488-3.535-1.465-1.953-1.952-1.953-5.118 0-7.07l10-10c1.951-1.953 5.119-1.953 7.07 0 1.953 1.952 1.953 5.118 0 7.07l-10 10c-.976.977-2.256 1.465-3.535 1.465z"/><path d="m339.577 66.526c-1.279 0-2.56-.488-3.535-1.465-1.953-1.952-1.953-5.118 0-7.07l10-10c1.951-1.953 5.119-1.953 7.07 0 1.953 1.952 1.953 5.118 0 7.07l-10 10c-.975.977-2.256 1.465-3.535 1.465z"/><path d="m66 327.533c-1.279 0-2.56-.488-3.535-1.465-1.953-1.952-1.953-5.118 0-7.07l10-10c1.951-1.953 5.119-1.953 7.07 0 1.953 1.952 1.953 5.118 0 7.07l-10 10c-.975.977-2.256 1.465-3.535 1.465z"/></g></g><path d="m365.673 438.146-105.161-61.652c-2.986-1.751-6.686-1.751-9.672 0l-105.16 61.652c-6.375 3.737-14.398-.86-14.398-8.249v-328.18c0-10.562 8.562-19.124 19.124-19.124h210.541c10.562 0 19.124 8.562 19.124 19.124v328.181c.001 7.389-8.023 11.986-14.398 8.248z" fill="url(#SVGID_2_)"/></g></svg>