<svg id="Capa_1" enable-background="new 0 0 512 512" height="512" viewBox="0 0 512 512" width="512" xmlns="http://www.w3.org/2000/svg" xmlns:xlink="http://www.w3.org/1999/xlink"><linearGradient id="SVGID_1_" gradientUnits="userSpaceOnUse" x1="285.786" x2="215.289" y1="596.679" y2="-45.289"><stop offset=".0023" stop-color="#ff9494"/><stop offset=".992" stop-color="#ffe8dc" stop-opacity="0"/></linearGradient><linearGradient id="SVGID_2_" gradientUnits="userSpaceOnUse" x1="236.866" x2="236.866" y1="438.36" y2="52.628"><stop offset="0" stop-color="#ff4d4d" stop-opacity=".4"/><stop offset="1" stop-color="#ff4d4d" stop-opacity="0"/></linearGradient><g><path d="m465.257 164.114c-14.861-17.312-24.645-38.356-29.218-60.708-3.878-18.954-12.095-35.401-24.961-48.267-58.773-58.773-192.264-20.572-298.161 85.325-105.897 105.896-144.098 239.387-85.325 298.16 27.937 27.937 72.757 33.955 123.469 21.212 29.453-7.401 60.532-4.287 88.29 8.03 23.202 10.295 48.799 16.173 75.724 16.566 105.676 1.543 193.748-82.552 196.839-188.195 1.479-50.505-16.354-96.822-46.657-132.123z" fill="url(#SVGID_1_)"/><g><g><path d="m319.399 53.275c-13.426 5.179-28.39 5.179-41.816 0-3.65-1.408-7.79-.464-10.556 2.302l-220.078 220.078c-2.766 2.766-3.709 6.907-2.301 10.556 5.179 13.427 5.179 28.39 0 41.816-1.408 3.65-.464 7.79 2.301 10.556l96.828 96.828c2.766 2.766 6.907 3.709 10.556 2.301 13.426-5.179 28.39-5.179 41.816 0 3.65 1.408 7.79.465 10.556-2.301l220.078-220.078c2.766-2.766 3.709-6.907 2.301-10.556-5.179-13.427-5.179-28.39 0-41.816 1.408-3.649.465-7.79-2.301-10.556l-96.828-96.828c-2.766-2.766-6.906-3.71-10.556-2.302z" fill="#ff2c2c"/><path d="m191.364 405.294c-10.652-1.978-21.594-1.978-32.245 0-1.601.297-3.245-.237-4.396-1.388l-76.268-76.268c-1.152-1.152-1.686-2.795-1.389-4.396 1.978-10.651 1.978-21.594 0-32.245-.297-1.601.237-3.245 1.389-4.396l199.517-199.519c1.152-1.152 2.795-1.686 4.396-1.389 10.652 1.978 21.594 1.978 32.245 0 1.601-.297 3.245.237 4.396 1.389l76.268 76.268c1.152 1.152 1.686 2.795 1.389 4.396-1.978 10.652-1.978 21.594 0 32.245.297 1.601-.237 3.245-1.389 4.396l-199.517 199.519c-1.151 1.152-2.795 1.686-4.396 1.388z" fill="#fff"/><path d="m277.972 87.082-99.759 99.759 117.306 117.306 99.759-99.759c1.152-1.152 1.686-2.795 1.389-4.396-1.978-10.651-1.978-21.594 0-32.245.297-1.601-.237-3.245-1.389-4.396l-76.268-76.269c-1.152-1.152-2.795-1.686-4.396-1.389-10.651 1.978-21.594 1.978-32.245 0-1.602-.297-3.245.237-4.397 1.389z" fill="#ff9d33"/><g fill="#6c6cff"><g><path d="m125.237 319.36h-15.565c-2.761 0-5-2.239-5-5v-15.565c0-2.761 2.239-5 5-5h15.565c2.761 0 5 2.239 5 5v15.565c0 2.761-2.238 5-5 5zm-10.565-10h5.565v-5.565h-5.565z"/><path d="m183.409 319.36h-15.565c-2.761 0-5-2.239-5-5v-15.565c0-2.761 2.239-5 5-5h15.565c2.761 0 5 2.239 5 5v15.565c0 2.761-2.239 5-5 5zm-10.565-10h5.565v-5.565h-5.565z"/></g><path d="m146.54 345.223c-2.761 0-5-2.239-5-5v-67.292c0-2.761 2.239-5 5-5s5 2.239 5 5v67.292c0 2.761-2.238 5-5 5z"/></g><path d="m163.296 365.822 30.07-30.069c1.954-1.954 5.122-1.954 7.075 0 1.954 1.954 1.954 5.121 0 7.075l-30.069 30.069c-1.954 1.954-5.122 1.954-7.075 0-1.955-1.953-1.955-5.121-.001-7.075" fill="#ff9d33"/><path d="m176.975 379.501 72.52-72.52c1.954-1.954 5.122-1.954 7.075 0 1.954 1.954 1.954 5.121 0 7.075l-72.52 72.52c-1.954 1.954-5.121 1.954-7.075 0s-1.954-5.121 0-7.075" fill="#ff9d33"/><g><circle cx="299.171" cy="183.189" fill="#fff" r="57.305"/><circle cx="237.024" cy="183.189" fill="#ff4d4d" r="21.341"/><g><g fill="#ff7300"><path d="m303.222 212.692c-1.28 0-2.559-.488-3.536-1.464-1.953-1.953-1.953-5.119 0-7.071l14.836-14.836c.963-.962 1.493-2.242 1.493-3.603s-.53-2.641-1.493-3.603c-1.986-1.987-5.22-1.987-7.206 0l-9.22 9.22c-5.886 5.885-15.463 5.886-21.349 0s-5.886-15.463 0-21.349l14.836-14.836c1.953-1.952 5.118-1.952 7.071 0 1.953 1.953 1.953 5.119 0 7.071l-14.836 14.836c-1.987 1.986-1.987 5.219 0 7.207 1.987 1.986 5.22 1.986 7.207 0l9.219-9.22c5.886-5.886 15.463-5.886 21.349 0 2.851 2.851 4.421 6.642 4.421 10.674s-1.57 7.823-4.422 10.674l-14.835 14.836c-.976.976-2.255 1.464-3.535 1.464z"/><path d="m318.764 207.783c-1.28 0-2.559-.488-3.536-1.464l-39.187-39.187c-1.953-1.953-1.953-5.119 0-7.071s5.118-1.952 7.071 0l39.187 39.187c1.953 1.953 1.953 5.119 0 7.071-.976.975-2.255 1.464-3.535 1.464z"/></g></g></g><g fill="#ff4d4d"><circle cx="178.428" cy="218.193" r="5.593"/><circle cx="190.392" cy="230.157" r="5.593"/><circle cx="202.356" cy="242.122" r="5.593"/></g></g><path d="m156.828 118.159c-1.28 0-2.559-.488-3.536-1.464-1.953-1.953-1.953-5.119 0-7.071l10.006-10.006c1.953-1.952 5.118-1.952 7.071 0 1.953 1.953 1.953 5.119 0 7.071l-10.006 10.006c-.976.976-2.256 1.464-3.535 1.464z" fill="#ff9d33"/><g><path d="m61.976 433.354c-1.28 0-2.559-.488-3.536-1.464-1.953-1.953-1.953-5.119 0-7.071l10.006-10.006c1.953-1.952 5.118-1.952 7.071 0 1.953 1.953 1.953 5.119 0 7.071l-10.006 10.006c-.976.976-2.256 1.464-3.535 1.464z" fill="#ff9d33"/><path d="m457.994 179.732c-1.28 0-2.559-.488-3.536-1.464-1.953-1.953-1.953-5.119 0-7.071l10.006-10.006c1.953-1.952 5.118-1.952 7.071 0 1.953 1.953 1.953 5.119 0 7.071l-10.006 10.006c-.976.976-2.255 1.464-3.535 1.464z" fill="#6c6cff"/></g><path d="m308.758 403.047c-1.28 0-2.559-.488-3.536-1.464-1.953-1.953-1.953-5.119 0-7.071l10.006-10.006c1.953-1.952 5.118-1.952 7.071 0 1.953 1.953 1.953 5.119 0 7.071l-10.006 10.006c-.976.976-2.255 1.464-3.535 1.464z" fill="#ff9d33"/><g><path d="m377.905 363.946c-1.28 0-2.559-.488-3.536-1.464-1.953-1.953-1.953-5.119 0-7.071l10.006-10.006c.938-.938 2.21-1.464 3.536-1.464 1.326 0 2.598.527 3.536 1.464l10.005 10.006c1.953 1.953 1.953 5.119 0 7.071-1.953 1.953-5.118 1.952-7.071 0l-6.47-6.47-6.47 6.47c-.977.976-2.256 1.464-3.536 1.464z" fill="#6c6cff"/></g><g><path d="m115.839 142.897c-1.28 0-2.559-.488-3.536-1.464l-6.47-6.47-6.47 6.47c-1.952 1.952-5.118 1.952-7.071 0-1.953-1.953-1.953-5.119 0-7.071l10.005-10.006c.938-.937 2.209-1.464 3.536-1.464 1.326 0 2.598.527 3.536 1.464l10.006 10.006c1.953 1.953 1.953 5.119 0 7.071-.977.975-2.256 1.464-3.536 1.464z" fill="#ff6c6c"/></g></g><path d="m319.399 53.275c-13.426 5.179-28.39 5.179-41.816 0-3.65-1.408-7.79-.464-10.556 2.302l-220.078 220.078c-2.766 2.766-3.709 6.907-2.301 10.556 5.179 13.427 5.179 28.39 0 41.816-1.408 3.65-.464 7.79 2.301 10.556l96.828 96.828c2.766 2.766 6.907 3.709 10.556 2.301 13.426-5.179 28.39-5.179 41.816 0 3.65 1.408 7.79.465 10.556-2.301l220.078-220.078c2.766-2.766 3.709-6.907 2.301-10.556-5.179-13.427-5.179-28.39 0-41.816 1.408-3.649.465-7.79-2.301-10.556l-96.828-96.828c-2.766-2.766-6.906-3.71-10.556-2.302z" fill="url(#SVGID_2_)"/></g></svg>