<svg id="Capa_1" enable-background="new 0 0 512 512" height="512" viewBox="0 0 512 512" width="512" xmlns="http://www.w3.org/2000/svg" xmlns:xlink="http://www.w3.org/1999/xlink"><linearGradient id="SVGID_1_" gradientUnits="userSpaceOnUse" x1="277.606" x2="233.606" y1="6.982" y2="522.983"><stop offset=".007" stop-color="#9494ff"/><stop offset=".992" stop-color="#ffe8dc" stop-opacity="0"/></linearGradient><linearGradient id="SVGID_2_" gradientUnits="userSpaceOnUse" x1="256" x2="256" y1="337.648" y2="19.852"><stop offset="0" stop-color="#ff4d4d" stop-opacity=".4"/><stop offset="1" stop-color="#ff4d4d" stop-opacity="0"/></linearGradient><g><path d="m512 260.364c0-27.631-12.504-53.535-34.347-75.837-15.199-15.519-27.854-33.295-37.513-52.751-30.889-62.217-83.554-103.196-143.336-103.196-42.483 0-81.369 20.698-111.403 55.003-19.88 22.707-44.981 40.125-72.988 51.371-67.838 27.243-112.413 73.243-112.413 125.41s44.575 98.168 112.414 125.41c28.007 11.246 53.107 28.664 72.988 51.371 30.034 34.305 68.92 55.003 111.402 55.003 59.782 0 112.447-40.979 143.336-103.196 9.659-19.456 22.314-37.233 37.513-52.751 21.843-22.302 34.347-48.205 34.347-75.837z" fill="url(#SVGID_1_)"/><g><g><g><g><g><path d="m421.95 448.484-47.82-8.76c-1.36-.25-2.74.26-3.62 1.32l-31 37.45c-1.88 2.27-5.52 1.64-6.53-1.13l-51.93-142.68-22.59-62.07 93.24-33.94 18.76 51.53 55.76 153.23c1.01 2.77-1.37 5.58-4.27 5.05z" fill="#ff4d4d"/><path d="m367.42 290.174.1 8.77c.07 6.46-2.39 12.55-6.92 17.13-4.49 4.54-10.71 7.14-17.06 7.14-2.61 0-5.2-.42-7.69-1.26l-8.31-2.81-2.62 8.38c-3.15 10.07-12.37 16.84-22.93 16.84-5.18 0-10.12-1.64-14.3-4.74l-6.64-4.94-22.59-62.07 93.24-33.94 18.76 51.53z" fill="#ff2c2c"/><path d="m394.14 443.394-20.01-3.67c-1.35-.25-2.75.26-3.62 1.32l-12.98 15.68-42.32-116.29-28.44-78.13 36.61-13.32 26.68 73.31z" fill="#ff6c6c"/><path d="m350.06 322.294c-2.11.6-4.31.92-6.52.92-2.61 0-5.2-.42-7.69-1.26l-8.31-2.81-2.62 8.38c-1.71 5.45-5.19 9.94-9.71 12.91l-28.44-78.13 36.61-13.32z" fill="#ff4d4d"/></g><g><path d="m253.54 272.614-22.59 62.07-51.93 142.68c-1.01 2.77-4.65 3.4-6.53 1.13l-31-37.45c-.88-1.06-2.26-1.57-3.62-1.32l-47.82 8.76c-2.9.53-5.28-2.28-4.27-5.05l55.76-153.23 18.76-51.53z" fill="#ff4d4d"/><path d="m160.3 238.674 93.24 33.94-22.59 62.07-6.64 4.93c-4.18 3.11-9.12 4.75-14.3 4.75-10.56 0-19.78-6.77-22.93-16.84l-2.62-8.38-8.31 2.81c-2.49.84-5.08 1.26-7.68 1.26-6.36.01-12.58-2.6-17.07-7.14-4.53-4.58-6.99-10.67-6.92-17.13l.1-8.77-3.04.03z" fill="#ff2c2c"/><path d="m225.23 262.304-28.44 78.13-42.32 116.29-12.98-15.68c-.87-1.06-2.27-1.57-3.62-1.32l-20.01 3.67 44.08-121.1 26.68-73.31z" fill="#ff6c6c"/><path d="m225.23 262.304-28.44 78.13c-4.52-2.97-8-7.46-9.71-12.91l-2.62-8.38-8.31 2.81c-2.49.84-5.08 1.26-7.68 1.26-2.22 0-4.42-.31-6.53-.92l26.68-73.31z" fill="#ff4d4d"/></g></g><g><path d="m264.155 24.065 7.444 10.49c3.247 4.575 9.621 5.585 14.123 2.237l10.322-7.677c5.527-4.11 13.457-1.534 15.512 5.04l3.838 12.277c1.674 5.354 7.424 8.285 12.74 6.492l12.189-4.111c6.526-2.201 13.272 2.7 13.195 9.587l-.144 12.863c-.062 5.61 4.501 10.174 10.111 10.111l12.863-.144c6.887-.077 11.788 6.669 9.587 13.196l-4.111 12.189c-1.793 5.316 1.137 11.066 6.492 12.741l12.277 3.838c6.574 2.055 9.151 9.985 5.04 15.512l-7.676 10.322c-3.348 4.502-2.338 10.876 2.237 14.123l10.49 7.444c5.617 3.986 5.617 12.324 0 16.31l-10.49 7.444c-4.575 3.247-5.585 9.621-2.237 14.123l7.676 10.322c4.11 5.527 1.534 13.457-5.04 15.512l-12.277 3.838c-5.355 1.674-8.285 7.424-6.492 12.74l4.111 12.189c2.201 6.526-2.7 13.272-9.587 13.195l-12.863-.143c-5.61-.063-10.173 4.501-10.111 10.111l.144 12.863c.077 6.887-6.669 11.788-13.195 9.587l-12.189-4.111c-5.316-1.793-11.066 1.137-12.74 6.492l-3.838 12.277c-2.055 6.574-9.985 9.151-15.512 5.04l-10.322-7.677c-4.502-3.348-10.876-2.338-14.123 2.237l-7.444 10.49c-3.986 5.617-12.324 5.617-16.31 0l-7.444-10.49c-3.247-4.575-9.621-5.585-14.123-2.237l-10.322 7.677c-5.527 4.11-13.457 1.534-15.512-5.04l-3.838-12.277c-1.674-5.355-7.424-8.285-12.74-6.492l-12.189 4.111c-6.526 2.201-13.272-2.7-13.195-9.587l.143-12.863c.062-5.61-4.501-10.173-10.111-10.111l-12.863.143c-6.887.077-11.788-6.669-9.587-13.195l4.111-12.189c1.793-5.316-1.137-11.066-6.492-12.74l-12.277-3.838c-6.574-2.055-9.15-9.985-5.04-15.512l7.676-10.322c3.348-4.502 2.338-10.876-2.237-14.123l-10.49-7.444c-5.617-3.986-5.617-12.324 0-16.31l10.49-7.444c4.575-3.247 5.585-9.621 2.237-14.123l-7.676-10.322c-4.11-5.527-1.534-13.457 5.04-15.512l12.277-3.838c5.355-1.674 8.285-7.425 6.492-12.741l-4.111-12.189c-2.201-6.526 2.7-13.272 9.587-13.196l12.863.144c5.61.063 10.173-4.501 10.111-10.111l-.144-12.863c-.077-6.887 6.669-11.788 13.195-9.587l12.189 4.111c5.316 1.793 11.066-1.137 12.74-6.492l3.838-12.277c2.055-6.574 9.985-9.151 15.512-5.04l10.322 7.677c4.502 3.348 10.876 2.338 14.123-2.237l7.444-10.49c3.987-5.617 12.325-5.617 16.311 0z" fill="#ffab66"/><circle cx="256" cy="178.75" fill="#ff7300" r="121.648"/><path d="m256 285.125c-58.655 0-106.375-47.72-106.375-106.375s47.72-106.375 106.375-106.375 106.375 47.72 106.375 106.375-47.72 106.375-106.375 106.375zm0-202.75c-53.142 0-96.375 43.233-96.375 96.375s43.233 96.375 96.375 96.375 96.375-43.233 96.375-96.375-43.233-96.375-96.375-96.375z" fill="#ffc599"/><g><g fill="#fff"><path d="m256 233.266c-1.408 0-2.751-.594-3.698-1.636l-51.654-56.78c-1.6-1.758-1.74-4.398-.338-6.316l13.952-19.078c.941-1.288 2.441-2.049 4.036-2.049h75.404c1.595 0 3.095.761 4.036 2.049l13.952 19.078c1.402 1.918 1.262 4.558-.338 6.316l-51.654 56.78c-.947 1.042-2.29 1.636-3.698 1.636zm-45.208-62.125 45.208 49.694 45.208-49.694-10.044-13.733h-70.328z"/><path d="m256 233.266c-2.198 0-4.139-1.436-4.781-3.537l-17.369-56.78c-.264-.863-.289-1.781-.074-2.657l4.691-19.078c.55-2.234 2.554-3.806 4.855-3.806h25.355c2.302 0 4.306 1.571 4.855 3.806l4.691 19.078c.215.876.189 1.794-.074 2.657l-17.369 56.78c-.641 2.101-2.582 3.537-4.78 3.537zm-12.185-61.925 12.185 39.832 12.185-39.832-3.427-13.934h-17.516z"/><path d="m307.654 176.485h-103.308c-2.762 0-5-2.238-5-5s2.238-5 5-5h103.309c2.762 0 5 2.238 5 5s-2.239 5-5.001 5z"/></g><g><path d="m262.25 259.769h-12.5c-2.762 0-5-2.239-5-5s2.238-5 5-5h12.5c2.762 0 5 2.239 5 5s-2.238 5-5 5z" fill="#fff"/></g><path d="m256 132.793c-2.762 0-5-2.238-5-5v-25.062h-.444c-2.762 0-5-2.238-5-5s2.238-5 5-5h5.444c2.762 0 5 2.238 5 5v30.062c0 2.762-2.238 5-5 5z" fill="#fff"/></g></g></g><g><g><path d="m64.276 275.897c-1.279 0-2.56-.488-3.535-1.465l-6.465-6.464-6.465 6.464c-1.951 1.953-5.119 1.953-7.07 0-1.953-1.952-1.953-5.118 0-7.07l10-10c1.951-1.953 5.119-1.953 7.07 0l10 10c1.953 1.952 1.953 5.118 0 7.07-.975.977-2.255 1.465-3.535 1.465z" fill="#ff9d33"/></g><g><path d="m467.724 225.258c-1.279 0-2.56-.488-3.535-1.465l-6.465-6.464-6.465 6.464c-1.951 1.953-5.119 1.953-7.07 0-1.953-1.952-1.953-5.118 0-7.07l10-10c1.951-1.953 5.119-1.953 7.07 0l10 10c1.953 1.952 1.953 5.118 0 7.07-.976.976-2.256 1.465-3.535 1.465z" fill="#6c6cff"/></g></g><g><path d="m441 285.897c-1.279 0-2.56-.488-3.535-1.465l-6.465-6.463-6.465 6.464c-1.951 1.953-5.119 1.953-7.07 0-1.953-1.952-1.953-5.118 0-7.07l10-10c1.951-1.953 5.119-1.953 7.07 0l10 10c1.953 1.952 1.953 5.118 0 7.07-.975.976-2.256 1.464-3.535 1.464z" fill="#ff6c6c"/></g><path d="m85.544 331.397c-1.279 0-2.56-.488-3.535-1.465-1.953-1.952-1.953-5.118 0-7.07l10-10c1.951-1.953 5.119-1.953 7.07 0 1.953 1.952 1.953 5.118 0 7.07l-10 10c-.975.977-2.256 1.465-3.535 1.465z" fill="#6c6cff"/><path d="m72.553 106.433c-1.279 0-2.559-.488-3.535-1.465-1.953-1.952-1.953-5.118 0-7.07l10-10c1.951-1.953 5.119-1.953 7.07 0 1.953 1.952 1.953 5.118 0 7.07l-10 10c-.976.977-2.256 1.465-3.535 1.465z" fill="#ff6c6c"/></g></g><path d="m264.155 24.065 7.444 10.49c3.247 4.575 9.621 5.585 14.123 2.237l10.322-7.677c5.527-4.11 13.457-1.534 15.512 5.04l3.838 12.277c1.674 5.354 7.424 8.285 12.74 6.492l12.189-4.111c6.526-2.201 13.272 2.7 13.195 9.587l-.144 12.863c-.062 5.61 4.501 10.174 10.111 10.111l12.863-.144c6.887-.077 11.788 6.669 9.587 13.196l-4.111 12.189c-1.793 5.316 1.137 11.066 6.492 12.741l12.277 3.838c6.574 2.055 9.151 9.985 5.04 15.512l-7.676 10.322c-3.348 4.502-2.338 10.876 2.237 14.123l10.49 7.444c5.617 3.986 5.617 12.324 0 16.31l-10.49 7.444c-4.575 3.247-5.585 9.621-2.237 14.123l7.676 10.322c4.11 5.527 1.534 13.457-5.04 15.512l-12.277 3.838c-5.355 1.674-8.285 7.424-6.492 12.74l4.111 12.189c2.201 6.526-2.7 13.272-9.587 13.195l-12.863-.143c-5.61-.063-10.173 4.501-10.111 10.111l.144 12.863c.077 6.887-6.669 11.788-13.195 9.587l-12.189-4.111c-5.316-1.793-11.066 1.137-12.74 6.492l-3.838 12.277c-2.055 6.574-9.985 9.151-15.512 5.04l-10.322-7.677c-4.502-3.348-10.876-2.338-14.123 2.237l-7.444 10.49c-3.986 5.617-12.324 5.617-16.31 0l-7.444-10.49c-3.247-4.575-9.621-5.585-14.123-2.237l-10.322 7.677c-5.527 4.11-13.457 1.534-15.512-5.04l-3.838-12.277c-1.674-5.355-7.424-8.285-12.74-6.492l-12.189 4.111c-6.526 2.201-13.272-2.7-13.195-9.587l.143-12.863c.062-5.61-4.501-10.173-10.111-10.111l-12.863.143c-6.887.077-11.788-6.669-9.587-13.195l4.111-12.189c1.793-5.316-1.137-11.066-6.492-12.74l-12.277-3.838c-6.574-2.055-9.15-9.985-5.04-15.512l7.676-10.322c3.348-4.502 2.338-10.876-2.237-14.123l-10.49-7.444c-5.617-3.986-5.617-12.324 0-16.31l10.49-7.444c4.575-3.247 5.585-9.621 2.237-14.123l-7.676-10.322c-4.11-5.527-1.534-13.457 5.04-15.512l12.277-3.838c5.355-1.674 8.285-7.425 6.492-12.741l-4.111-12.189c-2.201-6.526 2.7-13.272 9.587-13.196l12.863.144c5.61.063 10.173-4.501 10.111-10.111l-.144-12.863c-.077-6.887 6.669-11.788 13.195-9.587l12.189 4.111c5.316 1.793 11.066-1.137 12.74-6.492l3.838-12.277c2.055-6.574 9.985-9.151 15.512-5.04l10.322 7.677c4.502 3.348 10.876 2.338 14.123-2.237l7.444-10.49c3.987-5.617 12.325-5.617 16.311 0z" fill="url(#SVGID_2_)"/></g></svg>